<svg xmlns="http://www.w3.org/2000/svg" xmlns:xlink="http://www.w3.org/1999/xlink" xmlns:s="https://github.com/nturley/netlistsvg" width="492" height="317.5"><style>svg {
  stroke:#000;
  fill:none;
}
text {
  fill:#000;
  stroke:none;
  font-size:10px;
  font-weight: bold;
  font-family: "Courier New", monospace;
}
line {
    stroke-linecap: round;
}
.nodelabel {
  text-anchor: middle;
}
.inputPortLabel {
  text-anchor: end;
}
.splitjoinBody {
  fill:#000;
}</style><g s:type="dff" transform="translate(78,39)" s:width="30" s:height="40" id="cell_\10"><s:alias val="$dff"/><s:alias val="$_DFF_"/><s:alias val="$_DFF_P_"/><s:alias val="dff-bus"/><s:alias val="$dff-bus"/><s:alias val="$_DFF_-bus"/><s:alias val="$_DFF_P_-bus"/><rect width="30" height="40" x="0" y="0" fill="#ffef8b" class="cell_\10"/><path d="M0,35 L5,30 L0,25" class="cell_\10"/><g s:x="31" s:y="10" s:pid="Q"/><g s:x="-1" s:y="30" s:pid="CLK"/><g s:x="-1" s:y="30" s:pid="C"/><g s:x="-1" s:y="10" s:pid="D"/></g><g s:type="add" transform="translate(183,114)" s:width="25" s:height="25" id="cell_\4"><s:alias val="$add"/><circle r="12.5" cx="12.5" cy="12.5" fill="#ffc9c3" class="cell_\4"/><line x1="7.5" x2="17.5" y1="12.5" y2="12.5" class="cell_\4"/><line x1="12.5" x2="12.5" y1="7.5" y2="17.5" class="cell_\4"/><g s:x="2" s:y="5" s:pid="A"/><g s:x="2" s:y="20" s:pid="B"/><g s:x="26" s:y="12.5" s:pid="Y"/></g><g s:type="mux-bus" transform="translate(311.6666666666667,96.5)" s:width="24" s:height="40" id="cell_\5"><s:alias val="$pmux-bus"/><s:alias val="$mux-bus"/><s:alias val="$_MUX_-bus"/><path d="M8,2 L8,0 L24,8 L24,32 L8,40 L8,38" fill="#ffffff" class="cell_\5"/><path d="M4,2 L4,0 L22,9 L22,31 L4,40 L4,38" fill="#ffffff" class="cell_\5"/><path d="M0,0 L20,10 L20,30 L0,40 Z" fill="#ffffff" class="cell_\5"/><text x="5" y="32" class="nodelabel cell_\5" s:attribute="">1</text><text x="5" y="13" class="nodelabel cell_\5" s:attribute="">0</text><g s:x="-1" s:y="10" s:pid="A"/><g s:x="-1" s:y="30" s:pid="B"/><g s:x="12" s:y="38" s:pid="S"/><g s:x="24.5" s:y="20" s:pid="Y"/></g><g s:type="mux-bus" transform="translate(441,187.5)" s:width="24" s:height="40" id="cell_\7"><s:alias val="$pmux-bus"/><s:alias val="$mux-bus"/><s:alias val="$_MUX_-bus"/><path d="M8,2 L8,0 L24,8 L24,32 L8,40 L8,38" fill="#ffffff" class="cell_\7"/><path d="M4,2 L4,0 L22,9 L22,31 L4,40 L4,38" fill="#ffffff" class="cell_\7"/><path d="M0,0 L20,10 L20,30 L0,40 Z" fill="#ffffff" class="cell_\7"/><text x="5" y="32" class="nodelabel cell_\7" s:attribute="">1</text><text x="5" y="13" class="nodelabel cell_\7" s:attribute="">0</text><g s:x="-1" s:y="10" s:pid="A"/><g s:x="-1" s:y="30" s:pid="B"/><g s:x="12" s:y="38" s:pid="S"/><g s:x="24.5" s:y="20" s:pid="Y"/></g><g s:type="inputExt" transform="translate(12,59)" s:width="30" s:height="20" id="cell_clk"><text x="15" y="-4" class="nodelabel cell_clk" s:attribute="ref">clk</text><s:alias val="$_inputExt_"/><path d="M0,0 L0,20 L15,20 L30,10 L15,0 Z" fill="#8bcaff" class="cell_clk"/><g s:x="30" s:y="10" s:pid="Y"/></g><g s:type="inputExt" transform="translate(375,268.5)" s:width="30" s:height="20" id="cell_rst"><text x="15" y="-4" class="nodelabel cell_rst" s:attribute="ref">rst</text><s:alias val="$_inputExt_"/><path d="M0,0 L0,20 L15,20 L30,10 L15,0 Z" fill="#8bcaff" class="cell_rst"/><g s:x="30" s:y="10" s:pid="Y"/></g><g s:type="inputExt" transform="translate(244,177.5)" s:width="30" s:height="20" id="cell_en"><text x="15" y="-4" class="nodelabel cell_en" s:attribute="ref">en</text><s:alias val="$_inputExt_"/><path d="M0,0 L0,20 L15,20 L30,10 L15,0 Z" fill="#8bcaff" class="cell_en"/><g s:x="30" s:y="10" s:pid="Y"/></g><g s:type="outputExt" transform="translate(440,22)" s:width="30" s:height="20" id="cell_count"><text x="15" y="-4" class="nodelabel cell_count" s:attribute="ref">count</text><s:alias val="$_outputExt_"/><path d="M30,0 L30,20 L15,20 L0,10 L15,0 Z" fill="#169300" class="cell_count"/><g s:x="0" s:y="10" s:pid="A"/></g><g s:type="constant" transform="translate(78,124)" s:width="30" s:height="20" id="cell_0001"><text x="15" y="-4" class="nodelabel cell_0001" s:attribute="ref">0x1</text><s:alias val="$_constant_"/><rect width="30" height="20" fill="#745bff" class="cell_0001"/><g s:x="31" s:y="10" s:pid="Y"/></g><g s:type="constant" transform="translate(309,207.5)" s:width="30" s:height="20" id="cell_0000"><text x="15" y="-4" class="nodelabel cell_0000" s:attribute="ref">0x0</text><s:alias val="$_constant_"/><rect width="30" height="20" fill="#745bff" class="cell_0000"/><g s:x="31" s:y="10" s:pid="Y"/></g><line x1="42" x2="77" y1="69" y2="69" class="net_2 width_1" style="stroke-width: 1"/><line x1="465.5" x2="480" y1="207.5" y2="207.5" class="net_9,10,11,12 width_4" style="stroke-width: 2"/><line x1="480" x2="480" y1="207.5" y2="299.5" class="net_9,10,11,12 width_4" style="stroke-width: 2"/><line x1="480" x2="52" y1="299.5" y2="299.5" class="net_9,10,11,12 width_4" style="stroke-width: 2"/><line x1="52" x2="52" y1="299.5" y2="49" class="net_9,10,11,12 width_4" style="stroke-width: 2"/><line x1="52" x2="77" y1="49" y2="49" class="net_9,10,11,12 width_4" style="stroke-width: 2"/><line x1="109" x2="119" y1="49" y2="49" class="net_5,6,7,8 width_4" style="stroke-width: 2"/><line x1="119" x2="119" y1="49" y2="114" class="net_5,6,7,8 width_4" style="stroke-width: 2"/><line x1="119" x2="158" y1="114" y2="114" class="net_5,6,7,8 width_4" style="stroke-width: 2"/><line x1="158" x2="158" y1="114" y2="119" class="net_5,6,7,8 width_4" style="stroke-width: 2"/><circle cx="119" cy="49" r="3" style="fill:#000" class="net_5,6,7,8 width_4"/><line x1="158" x2="185" y1="119" y2="119" class="net_5,6,7,8 width_4" style="stroke-width: 2"/><line x1="109" x2="284" y1="49" y2="49" class="net_5,6,7,8 width_4" style="stroke-width: 2"/><line x1="284" x2="284" y1="49" y2="106.5" class="net_5,6,7,8 width_4" style="stroke-width: 2"/><line x1="284" x2="310.6666666666667" y1="106.5" y2="106.5" class="net_5,6,7,8 width_4" style="stroke-width: 2"/><line x1="109" x2="158" y1="49" y2="49" class="net_5,6,7,8 width_4" style="stroke-width: 2"/><line x1="158" x2="158" y1="49" y2="32" class="net_5,6,7,8 width_4" style="stroke-width: 2"/><circle cx="158" cy="49" r="3" style="fill:#000" class="net_5,6,7,8 width_4"/><line x1="158" x2="440" y1="32" y2="32" class="net_5,6,7,8 width_4" style="stroke-width: 2"/><line x1="109" x2="185" y1="134" y2="134" class="net_21,22,23,24 width_4" style="stroke-width: 2"/><line x1="209" x2="310.6666666666667" y1="126.5" y2="126.5" class="net_13,14,15,16 width_4" style="stroke-width: 2"/><line x1="274" x2="323.6666666666667" y1="187.5" y2="187.5" class="net_4 width_1" style="stroke-width: 1"/><line x1="323.6666666666667" x2="323.6666666666667" y1="187.5" y2="134.5" class="net_4 width_1" style="stroke-width: 1"/><line x1="336.1666666666667" x2="415" y1="116.5" y2="116.5" class="net_17,18,19,20 width_4" style="stroke-width: 2"/><line x1="415" x2="415" y1="116.5" y2="197.5" class="net_17,18,19,20 width_4" style="stroke-width: 2"/><line x1="415" x2="440" y1="197.5" y2="197.5" class="net_17,18,19,20 width_4" style="stroke-width: 2"/><line x1="340" x2="440" y1="217.5" y2="217.5" class="net_25,26,27,28 width_4" style="stroke-width: 2"/><line x1="405" x2="453" y1="278.5" y2="278.5" class="net_3 width_1" style="stroke-width: 1"/><line x1="453" x2="453" y1="278.5" y2="225.5" class="net_3 width_1" style="stroke-width: 1"/><rect x="258" y="294.5" width="16" height="9" class="net_9,10,11,12 width_4 busLabel_4" style="fill: white; stroke: none"/><text x="257" y="302.5" class="net_9,10,11,12 width_4 busLabel_4">/4/</text><rect x="258" y="27" width="16" height="9" class="net_5,6,7,8 width_4 busLabel_4" style="fill: white; stroke: none"/><text x="257" y="35" class="net_5,6,7,8 width_4 busLabel_4">/4/</text><rect x="258" y="27" width="16" height="9" class="net_5,6,7,8 width_4 busLabel_4" style="fill: white; stroke: none"/><text x="257" y="35" class="net_5,6,7,8 width_4 busLabel_4">/4/</text><rect x="258" y="27" width="16" height="9" class="net_5,6,7,8 width_4 busLabel_4" style="fill: white; stroke: none"/><text x="257" y="35" class="net_5,6,7,8 width_4 busLabel_4">/4/</text><rect x="145" y="129" width="16" height="9" class="net_21,22,23,24 width_4 busLabel_4" style="fill: white; stroke: none"/><text x="144" y="137" class="net_21,22,23,24 width_4 busLabel_4">/4/</text><rect x="258" y="121.5" width="16" height="9" class="net_13,14,15,16 width_4 busLabel_4" style="fill: white; stroke: none"/><text x="257" y="129.5" class="net_13,14,15,16 width_4 busLabel_4">/4/</text><rect x="389" y="111.5" width="16" height="9" class="net_17,18,19,20 width_4 busLabel_4" style="fill: white; stroke: none"/><text x="388" y="119.5" class="net_17,18,19,20 width_4 busLabel_4">/4/</text><rect x="389" y="212.5" width="16" height="9" class="net_25,26,27,28 width_4 busLabel_4" style="fill: white; stroke: none"/><text x="388" y="220.5" class="net_25,26,27,28 width_4 busLabel_4">/4/</text></svg>