<svg xmlns="http://www.w3.org/2000/svg" xmlns:xlink="http://www.w3.org/1999/xlink" xmlns:s="https://github.com/nturley/netlistsvg" width="493.5" height="339"><style>svg {
  stroke:#000;
  fill:none;
}
text {
  fill:#000;
  stroke:none;
  font-size:10px;
  font-weight: bold;
  font-family: "Courier New", monospace;
}
line {
    stroke-linecap: round;
}
.nodelabel {
  text-anchor: middle;
}
.inputPortLabel {
  text-anchor: end;
}
.splitjoinBody {
  fill:#000;
}</style><g s:type="mux-bus" transform="translate(315,33.5)" s:width="24" s:height="40" id="cell_\11"><s:alias val="$pmux-bus"/><s:alias val="$mux-bus"/><s:alias val="$_MUX_-bus"/><path d="M8,2 L8,0 L24,8 L24,32 L8,40 L8,38" fill="#ffffff" class="cell_\11"/><path d="M4,2 L4,0 L22,9 L22,31 L4,40 L4,38" fill="#ffffff" class="cell_\11"/><path d="M0,0 L20,10 L20,30 L0,40 Z" fill="#ffffff" class="cell_\11"/><text x="5" y="32" class="nodelabel cell_\11" s:attribute="">1</text><text x="5" y="13" class="nodelabel cell_\11" s:attribute="">0</text><g s:x="-1" s:y="10" s:pid="A"/><g s:x="-1" s:y="30" s:pid="B"/><g s:x="12" s:y="38" s:pid="S"/><g s:x="24.5" s:y="20" s:pid="Y"/></g><g s:type="mux" transform="translate(316.1666666666667,216)" s:width="20" s:height="40" id="cell_\13"><s:alias val="$pmux"/><s:alias val="$mux"/><s:alias val="$_MUX_"/><path d="M0,0 L20,10 L20,30 L0,40 Z" fill="#ffffff" class="cell_\13"/><text x="5" y="32" class="nodelabel cell_\13" s:attribute="">1</text><text x="5" y="13" class="nodelabel cell_\13" s:attribute="">0</text><g s:x="0" s:y="10" s:pid="A"/><g s:x="0" s:y="30" s:pid="B"/><g s:x="10" s:y="35" s:pid="S"/><g s:x="20" s:y="20" s:pid="Y"/></g><g s:type="mux-bus" transform="translate(442.5,43.5)" s:width="24" s:height="40" id="cell_\15"><s:alias val="$pmux-bus"/><s:alias val="$mux-bus"/><s:alias val="$_MUX_-bus"/><path d="M8,2 L8,0 L24,8 L24,32 L8,40 L8,38" fill="#ffffff" class="cell_\15"/><path d="M4,2 L4,0 L22,9 L22,31 L4,40 L4,38" fill="#ffffff" class="cell_\15"/><path d="M0,0 L20,10 L20,30 L0,40 Z" fill="#ffffff" class="cell_\15"/><text x="5" y="32" class="nodelabel cell_\15" s:attribute="">1</text><text x="5" y="13" class="nodelabel cell_\15" s:attribute="">0</text><g s:x="-1" s:y="10" s:pid="A"/><g s:x="-1" s:y="30" s:pid="B"/><g s:x="12" s:y="38" s:pid="S"/><g s:x="24.5" s:y="20" s:pid="Y"/></g><g s:type="dff" transform="translate(78,26)" s:width="30" s:height="40" id="cell_\19"><s:alias val="$dff"/><s:alias val="$_DFF_"/><s:alias val="$_DFF_P_"/><s:alias val="dff-bus"/><s:alias val="$dff-bus"/><s:alias val="$_DFF_-bus"/><s:alias val="$_DFF_P_-bus"/><rect width="30" height="40" x="0" y="0" fill="#ffef8b" class="cell_\19"/><path d="M0,35 L5,30 L0,25" class="cell_\19"/><g s:x="31" s:y="10" s:pid="Q"/><g s:x="-1" s:y="30" s:pid="CLK"/><g s:x="-1" s:y="30" s:pid="C"/><g s:x="-1" s:y="10" s:pid="D"/></g><g s:type="dff" transform="translate(375.5,226)" s:width="30" s:height="40" id="cell_\20"><s:alias val="$dff"/><s:alias val="$_DFF_"/><s:alias val="$_DFF_P_"/><s:alias val="dff-bus"/><s:alias val="$dff-bus"/><s:alias val="$_DFF_-bus"/><s:alias val="$_DFF_P_-bus"/><rect width="30" height="40" x="0" y="0" fill="#ffef8b" class="cell_\20"/><path d="M0,35 L5,30 L0,25" class="cell_\20"/><g s:x="31" s:y="10" s:pid="Q"/><g s:x="-1" s:y="30" s:pid="CLK"/><g s:x="-1" s:y="30" s:pid="C"/><g s:x="-1" s:y="10" s:pid="D"/></g><g s:type="eq" transform="translate(185,156)" s:width="25" s:height="25" id="cell_\4"><s:alias val="$eq"/><circle r="12.5" cx="12.5" cy="12.5" fill="#ffc9c3" class="cell_\4"/><line x1="7.5" x2="17.5" y1="10" y2="10" class="cell_\4"/><line x1="7.5" x2="17.5" y1="15" y2="15" class="cell_\4"/><g s:x="2" s:y="5" s:pid="A"/><g s:x="2" s:y="20" s:pid="B"/><g s:x="25" s:y="12.5" s:pid="Y"/></g><g s:type="add" transform="translate(185,31)" s:width="25" s:height="25" id="cell_\6"><s:alias val="$add"/><circle r="12.5" cx="12.5" cy="12.5" fill="#ffc9c3" class="cell_\6"/><line x1="7.5" x2="17.5" y1="12.5" y2="12.5" class="cell_\6"/><line x1="12.5" x2="12.5" y1="7.5" y2="17.5" class="cell_\6"/><g s:x="2" s:y="5" s:pid="A"/><g s:x="2" s:y="20" s:pid="B"/><g s:x="26" s:y="12.5" s:pid="Y"/></g><g s:type="mux" transform="translate(252.33333333333334,206)" s:width="20" s:height="40" id="cell_\9"><s:alias val="$pmux"/><s:alias val="$mux"/><s:alias val="$_MUX_"/><path d="M0,0 L20,10 L20,30 L0,40 Z" fill="#ffffff" class="cell_\9"/><text x="5" y="32" class="nodelabel cell_\9" s:attribute="">1</text><text x="5" y="13" class="nodelabel cell_\9" s:attribute="">0</text><g s:x="0" s:y="10" s:pid="A"/><g s:x="0" s:y="30" s:pid="B"/><g s:x="10" s:y="35" s:pid="S"/><g s:x="20" s:y="20" s:pid="Y"/></g><g s:type="inputExt" transform="translate(12,46)" s:width="30" s:height="20" id="cell_clk"><text x="15" y="-4" class="nodelabel cell_clk" s:attribute="ref">clk</text><s:alias val="$_inputExt_"/><path d="M0,0 L0,20 L15,20 L30,10 L15,0 Z" fill="#8bcaff" class="cell_clk"/><g s:x="30" s:y="10" s:pid="Y"/></g><g s:type="inputExt" transform="translate(249,276)" s:width="30" s:height="20" id="cell_rst"><text x="15" y="-4" class="nodelabel cell_rst" s:attribute="ref">rst</text><s:alias val="$_inputExt_"/><path d="M0,0 L0,20 L15,20 L30,10 L15,0 Z" fill="#8bcaff" class="cell_rst"/><g s:x="30" s:y="10" s:pid="Y"/></g><g s:type="outputExt" transform="translate(441.5,226)" s:width="30" s:height="20" id="cell_pulse"><text x="15" y="-4" class="nodelabel cell_pulse" s:attribute="ref">pulse</text><s:alias val="$_outputExt_"/><path d="M30,0 L30,20 L15,20 L0,10 L15,0 Z" fill="#169300" class="cell_pulse"/><g s:x="0" s:y="10" s:pid="A"/></g><g s:type="constant" transform="translate(183,101)" s:width="30" s:height="20" id="cell_000"><text x="15" y="-4" class="nodelabel cell_000" s:attribute="ref">000</text><s:alias val="$_constant_"/><rect width="30" height="20" fill="#745bff" class="cell_000"/><g s:x="31" s:y="10" s:pid="Y"/></g><g s:type="constant" transform="translate(183,296)" s:width="30" s:height="20" id="cell_0"><text x="15" y="-4" class="nodelabel cell_0" s:attribute="ref">0</text><s:alias val="$_constant_"/><rect width="30" height="20" fill="#745bff" class="cell_0"/><g s:x="31" s:y="10" s:pid="Y"/></g><g s:type="constant" transform="translate(78,176)" s:width="30" s:height="20" id="cell_101"><text x="15" y="-4" class="nodelabel cell_101" s:attribute="ref">101</text><s:alias val="$_constant_"/><rect width="30" height="20" fill="#745bff" class="cell_101"/><g s:x="31" s:y="10" s:pid="Y"/></g><g s:type="constant" transform="translate(78,111)" s:width="30" s:height="20" id="cell_001"><text x="15" y="-4" class="nodelabel cell_001" s:attribute="ref">001</text><s:alias val="$_constant_"/><rect width="30" height="20" fill="#745bff" class="cell_001"/><g s:x="31" s:y="10" s:pid="Y"/></g><g s:type="constant" transform="translate(183,226)" s:width="30" s:height="20" id="cell_1"><text x="15" y="-4" class="nodelabel cell_1" s:attribute="ref">1</text><s:alias val="$_constant_"/><rect width="30" height="20" fill="#745bff" class="cell_1"/><g s:x="31" s:y="10" s:pid="Y"/></g><line x1="211" x2="314" y1="43.5" y2="43.5" class="net_5,6,7 width_3" style="stroke-width: 2"/><line x1="214" x2="289" y1="111" y2="111" class="net_20,21,22 width_3" style="stroke-width: 2"/><line x1="289" x2="289" y1="111" y2="63.5" class="net_20,21,22 width_3" style="stroke-width: 2"/><line x1="289" x2="314" y1="63.5" y2="63.5" class="net_20,21,22 width_3" style="stroke-width: 2"/><line x1="214" x2="224" y1="111" y2="111" class="net_20,21,22 width_3" style="stroke-width: 2"/><line x1="224" x2="224" y1="111" y2="128" class="net_20,21,22 width_3" style="stroke-width: 2"/><line x1="224" x2="416.5" y1="128" y2="128" class="net_20,21,22 width_3" style="stroke-width: 2"/><line x1="416.5" x2="416.5" y1="128" y2="73.5" class="net_20,21,22 width_3" style="stroke-width: 2"/><circle cx="224" cy="111" r="3" style="fill:#000" class="net_20,21,22 width_3"/><line x1="416.5" x2="441.5" y1="73.5" y2="73.5" class="net_20,21,22 width_3" style="stroke-width: 2"/><line x1="210" x2="327" y1="168.5" y2="168.5" class="net_8 width_1" style="stroke-width: 1"/><line x1="327" x2="327" y1="168.5" y2="71.5" class="net_8 width_1" style="stroke-width: 1"/><line x1="210" x2="234" y1="168.5" y2="168.5" class="net_8 width_1" style="stroke-width: 1"/><line x1="234" x2="234" y1="168.5" y2="256" class="net_8 width_1" style="stroke-width: 1"/><line x1="234" x2="262.33333333333337" y1="256" y2="256" class="net_8 width_1" style="stroke-width: 1"/><circle cx="234" cy="168.5" r="2" style="fill:#000" class="net_8 width_1"/><line x1="262.33333333333337" x2="262.33333333333337" y1="256" y2="241" class="net_8 width_1" style="stroke-width: 1"/><line x1="272.33333333333337" x2="316.1666666666667" y1="226" y2="226" class="net_12 width_1" style="stroke-width: 1"/><line x1="214" x2="299" y1="306" y2="306" class="net_23 width_1" style="stroke-width: 1"/><line x1="299" x2="299" y1="306" y2="246" class="net_23 width_1" style="stroke-width: 1"/><line x1="299" x2="316.1666666666667" y1="246" y2="246" class="net_23 width_1" style="stroke-width: 1"/><line x1="214" x2="224" y1="306" y2="306" class="net_23 width_1" style="stroke-width: 1"/><line x1="224" x2="224" y1="306" y2="216" class="net_23 width_1" style="stroke-width: 1"/><circle cx="224" cy="306" r="2" style="fill:#000" class="net_23 width_1"/><line x1="224" x2="252.33333333333334" y1="216" y2="216" class="net_23 width_1" style="stroke-width: 1"/><line x1="279" x2="326.1666666666667" y1="286" y2="286" class="net_3 width_1" style="stroke-width: 1"/><line x1="326.1666666666667" x2="326.1666666666667" y1="286" y2="251" class="net_3 width_1" style="stroke-width: 1"/><line x1="279" x2="289" y1="286" y2="286" class="net_3 width_1" style="stroke-width: 1"/><line x1="289" x2="289" y1="286" y2="205" class="net_3 width_1" style="stroke-width: 1"/><line x1="289" x2="454.5" y1="205" y2="205" class="net_3 width_1" style="stroke-width: 1"/><circle cx="289" cy="286" r="2" style="fill:#000" class="net_3 width_1"/><line x1="454.5" x2="454.5" y1="205" y2="81.5" class="net_3 width_1" style="stroke-width: 1"/><line x1="339.5" x2="441.5" y1="53.5" y2="53.5" class="net_9,10,11 width_3" style="stroke-width: 2"/><line x1="42" x2="77" y1="56" y2="56" class="net_2 width_1" style="stroke-width: 1"/><line x1="42" x2="52" y1="56" y2="56" class="net_2 width_1" style="stroke-width: 1"/><line x1="52" x2="52" y1="56" y2="326" class="net_2 width_1" style="stroke-width: 1"/><line x1="52" x2="349.5" y1="326" y2="326" class="net_2 width_1" style="stroke-width: 1"/><line x1="349.5" x2="349.5" y1="326" y2="256" class="net_2 width_1" style="stroke-width: 1"/><circle cx="52" cy="56" r="2" style="fill:#000" class="net_2 width_1"/><line x1="349.5" x2="374.5" y1="256" y2="256" class="net_2 width_1" style="stroke-width: 1"/><line x1="467" x2="481.5" y1="63.5" y2="63.5" class="net_14,15,16 width_3" style="stroke-width: 2"/><line x1="481.5" x2="481.5" y1="63.5" y2="16" class="net_14,15,16 width_3" style="stroke-width: 2"/><line x1="481.5" x2="52" y1="16" y2="16" class="net_14,15,16 width_3" style="stroke-width: 2"/><line x1="52" x2="52" y1="16" y2="36" class="net_14,15,16 width_3" style="stroke-width: 2"/><line x1="52" x2="77" y1="36" y2="36" class="net_14,15,16 width_3" style="stroke-width: 2"/><line x1="336.1666666666667" x2="374.5" y1="236" y2="236" class="net_13 width_1" style="stroke-width: 1"/><line x1="109" x2="119" y1="36" y2="36" class="net_17,18,19 width_3" style="stroke-width: 2"/><line x1="119" x2="119" y1="36" y2="161" class="net_17,18,19 width_3" style="stroke-width: 2"/><circle cx="119" cy="36" r="3" style="fill:#000" class="net_17,18,19 width_3"/><line x1="119" x2="187" y1="161" y2="161" class="net_17,18,19 width_3" style="stroke-width: 2"/><line x1="109" x2="187" y1="36" y2="36" class="net_17,18,19 width_3" style="stroke-width: 2"/><line x1="109" x2="158" y1="186" y2="186" class="net_27,28,29 width_3" style="stroke-width: 2"/><line x1="158" x2="158" y1="186" y2="176" class="net_27,28,29 width_3" style="stroke-width: 2"/><line x1="158" x2="187" y1="176" y2="176" class="net_27,28,29 width_3" style="stroke-width: 2"/><line x1="109" x2="158" y1="121" y2="121" class="net_30,31,32 width_3" style="stroke-width: 2"/><line x1="158" x2="158" y1="121" y2="51" class="net_30,31,32 width_3" style="stroke-width: 2"/><line x1="158" x2="187" y1="51" y2="51" class="net_30,31,32 width_3" style="stroke-width: 2"/><line x1="214" x2="252.33333333333334" y1="236" y2="236" class="net_34 width_1" style="stroke-width: 1"/><line x1="406.5" x2="441.5" y1="236" y2="236" class="net_4 width_1" style="stroke-width: 1"/><rect x="263" y="38.5" width="16" height="9" class="net_5,6,7 width_3 busLabel_3" style="fill: white; stroke: none"/><text x="262" y="46.5" class="net_5,6,7 width_3 busLabel_3">/3/</text><rect x="325.75" y="123" width="16" height="9" class="net_20,21,22 width_3 busLabel_3" style="fill: white; stroke: none"/><text x="324.75" y="131" class="net_20,21,22 width_3 busLabel_3">/3/</text><rect x="325.75" y="123" width="16" height="9" class="net_20,21,22 width_3 busLabel_3" style="fill: white; stroke: none"/><text x="324.75" y="131" class="net_20,21,22 width_3 busLabel_3">/3/</text><rect x="389.5" y="48.5" width="16" height="9" class="net_9,10,11 width_3 busLabel_3" style="fill: white; stroke: none"/><text x="388.5" y="56.5" class="net_9,10,11 width_3 busLabel_3">/3/</text><rect x="263" y="11" width="16" height="9" class="net_14,15,16 width_3 busLabel_3" style="fill: white; stroke: none"/><text x="262" y="19" class="net_14,15,16 width_3 busLabel_3">/3/</text><rect x="145" y="31" width="16" height="9" class="net_17,18,19 width_3 busLabel_3" style="fill: white; stroke: none"/><text x="144" y="39" class="net_17,18,19 width_3 busLabel_3">/3/</text><rect x="145" y="31" width="16" height="9" class="net_17,18,19 width_3 busLabel_3" style="fill: white; stroke: none"/><text x="144" y="39" class="net_17,18,19 width_3 busLabel_3">/3/</text><rect x="145" y="181" width="16" height="9" class="net_27,28,29 width_3 busLabel_3" style="fill: white; stroke: none"/><text x="144" y="189" class="net_27,28,29 width_3 busLabel_3">/3/</text><rect x="145" y="116" width="16" height="9" class="net_30,31,32 width_3 busLabel_3" style="fill: white; stroke: none"/><text x="144" y="124" class="net_30,31,32 width_3 busLabel_3">/3/</text></svg>